<svg xmlns="http://www.w3.org/2000/svg" width="2898" height="833" fill="none" viewBox="0 0 2898 833"><path fill="#000" d="M387.627 698.727L369.557 729.257C353.45 756.467 313.217 756.467 297.11 729.257L279.04 698.727C265.024 675.047 258.016 663.21 246.76 656.66C235.503 650.113 221.331 649.87 192.986 649.383C151.141 648.66 124.896 646.097 102.886 636.98C62.048 620.063 29.6023 587.62 12.6867 546.78C-9.53674e-07 516.153 0 477.323 0 399.667V366.333C0 257.219 -1.90735e-06 202.662 24.56 162.584C38.3027 140.158 57.1577 121.303 79.5837 107.56C119.662 83 174.219 83 283.333 83H383.333C492.447 83 547.003 83 587.083 107.56C609.51 121.303 628.363 140.158 642.107 162.584C666.667 202.662 666.667 257.219 666.667 366.333V399.667C666.667 477.323 666.667 516.153 653.98 546.78C637.063 587.62 604.62 620.063 563.78 636.98C541.77 646.097 515.527 648.66 473.68 649.383C445.333 649.87 431.163 650.113 419.907 656.66C408.65 663.207 401.64 675.047 387.627 698.727Z"/><path fill="#fff" d="M211.364 430.437C211.364 455.949 211.517 458.431 213.471 464.507C221.13 488.33 252.113 510.308 292.037 520.244C305.851 523.68 317.558 525.04 333.001 524.999C346.161 524.967 353.745 524.222 365.891 521.77C408.537 513.167 443.457 489.82 451.534 464.507C453.48 458.409 453.633 455.925 453.633 430.437C453.633 407.235 453.577 405.62 452.776 405.928C451.084 406.576 350.797 459.122 348.544 460.54C343.693 463.593 341.057 464.193 332.501 464.193C324.119 464.193 321.048 463.525 316.92 460.8C315.159 459.638 213.905 406.562 212.246 405.93C211.415 405.615 211.364 406.989 211.364 430.437Z"/><path fill="#fff" d="M329.955 222.225C327.871 222.883 145.439 320.246 143.508 321.727C139.187 325.052 137.702 332.071 140.243 337.169C140.936 338.559 142.025 340.187 142.664 340.788C143.6 341.667 308.746 430.097 324.512 438.162C328.31 440.106 329.243 440.379 332.087 440.379H335.331L418.229 396.159C463.821 371.839 501.295 351.937 501.503 351.933C501.71 351.929 501.88 383.1 501.88 421.2C501.88 496.239 501.771 493.195 504.574 496.871C507.22 500.338 513.768 501.905 518.635 500.235C521.212 499.35 523.949 496.874 525.07 494.408C525.943 492.485 525.984 488.619 525.993 410.332C526.006 320.368 526.21 326.415 523.089 323.092C522.343 322.297 519.923 320.801 517.712 319.766C515.5 318.732 473.384 296.383 424.118 270.103C374.851 243.823 333.802 222.206 332.889 222.071C331.978 221.933 330.654 222.003 329.947 222.226L329.955 222.225Z"/><path fill="#000" d="M940.604 666V199.8H1027.18V666H940.604ZM980.564 474.858V396.27H1220.99V474.858H980.564ZM980.564 279.72V199.8H1249.63V279.72H980.564ZM1455.26 672.66C1420.18 672.66 1388.88 664.89 1361.35 649.35C1333.82 633.366 1312.07 611.61 1296.08 584.082C1280.1 556.554 1272.11 525.252 1272.11 490.176C1272.11 455.1 1280.1 423.798 1296.08 396.27C1312.07 368.742 1333.82 347.208 1361.35 331.668C1388.88 315.684 1420.18 307.692 1455.26 307.692C1489.89 307.692 1520.97 315.684 1548.5 331.668C1576.02 347.208 1597.56 368.742 1613.1 396.27C1629.08 423.798 1637.07 455.1 1637.07 490.176C1637.07 525.252 1629.08 556.554 1613.1 584.082C1597.56 611.61 1576.02 633.366 1548.5 649.35C1520.97 664.89 1489.89 672.66 1455.26 672.66ZM1455.26 600.066C1474.35 600.066 1491.22 595.182 1505.87 585.414C1520.97 575.646 1532.73 562.548 1541.17 546.12C1550.05 529.692 1554.27 511.044 1553.82 490.176C1554.27 468.864 1550.05 449.994 1541.17 433.566C1532.73 417.138 1520.97 404.262 1505.87 394.938C1491.22 385.17 1474.35 380.286 1455.26 380.286C1436.16 380.286 1418.85 385.17 1403.31 394.938C1388.21 404.262 1376.45 417.36 1368.01 434.232C1359.57 450.66 1355.36 469.308 1355.36 490.176C1355.36 511.044 1359.57 529.692 1368.01 546.12C1376.45 562.548 1388.21 575.646 1403.31 585.414C1418.85 595.182 1436.16 600.066 1455.26 600.066ZM1683.71 666V315.018H1764.3L1765.63 426.906L1754.31 401.598C1759.19 383.838 1767.63 367.854 1779.61 353.646C1791.6 339.438 1805.37 328.338 1820.91 320.346C1836.89 311.91 1853.54 307.692 1870.86 307.692C1878.4 307.692 1885.51 308.358 1892.17 309.69C1899.27 311.022 1905.04 312.576 1909.48 314.352L1887.51 404.262C1882.62 401.598 1876.63 399.378 1869.52 397.602C1862.42 395.826 1855.32 394.938 1848.21 394.938C1837.11 394.938 1826.46 397.158 1816.24 401.598C1806.48 405.594 1797.82 411.366 1790.27 418.914C1782.72 426.462 1776.73 435.342 1772.29 445.554C1768.29 455.322 1766.29 466.422 1766.29 478.854V666H1683.71ZM2059.27 672.66C2033.96 672.66 2011.98 667.11 1993.33 656.01C1974.68 644.466 1960.48 628.26 1950.71 607.392C1940.94 586.08 1936.06 560.772 1936.06 531.468V315.018H2017.97V514.152C2017.97 532.8 2020.86 548.784 2026.63 562.104C2032.4 574.98 2040.84 584.97 2051.94 592.074C2063.04 599.178 2076.36 602.73 2091.9 602.73C2103.44 602.73 2113.88 600.954 2123.2 597.402C2132.97 593.406 2141.41 588.078 2148.51 581.418C2155.61 574.314 2161.16 566.1 2165.16 556.776C2169.16 547.008 2171.15 536.574 2171.15 525.474V315.018H2253.07V666H2173.15L2171.82 592.74L2186.47 584.748C2181.14 601.62 2172.04 616.716 2159.17 630.036C2146.73 642.912 2131.86 653.346 2114.54 661.338C2097.23 668.886 2078.8 672.66 2059.27 672.66ZM2321.11 666V315.018H2401.7L2403.03 385.614L2389.71 390.942C2393.71 379.398 2399.7 368.742 2407.69 358.974C2415.68 348.762 2425.23 340.104 2436.33 333C2447.43 325.452 2459.2 319.68 2471.63 315.684C2484.06 311.244 2496.71 309.024 2509.59 309.024C2528.68 309.024 2545.55 312.132 2560.21 318.348C2575.3 324.12 2587.73 333.444 2597.5 346.32C2607.71 359.196 2615.26 375.624 2620.15 395.604L2607.49 392.94L2612.82 382.284C2617.7 371.628 2624.59 362.082 2633.47 353.646C2642.35 344.766 2652.34 336.996 2663.44 330.336C2674.54 323.232 2686.08 317.904 2698.07 314.352C2710.5 310.8 2722.71 309.024 2734.7 309.024C2761.34 309.024 2783.54 314.352 2801.3 325.008C2819.06 335.664 2832.38 351.87 2841.26 373.626C2850.14 395.382 2854.58 422.244 2854.58 454.212V666H2771.99V459.54C2771.99 441.78 2769.55 427.128 2764.67 415.584C2760.23 404.04 2753.12 395.604 2743.36 390.276C2734.03 384.504 2722.27 381.618 2708.06 381.618C2696.96 381.618 2686.3 383.616 2676.09 387.612C2666.32 391.164 2657.89 396.492 2650.78 403.596C2643.68 410.256 2638.13 418.026 2634.13 426.906C2630.14 435.786 2628.14 445.554 2628.14 456.21V666H2545.55V458.874C2545.55 442.002 2543.11 428.016 2538.23 416.916C2533.34 405.372 2526.24 396.714 2516.92 390.942C2507.59 384.726 2496.27 381.618 2482.95 381.618C2471.85 381.618 2461.42 383.616 2451.65 387.612C2441.88 391.164 2433.44 396.27 2426.34 402.93C2419.24 409.59 2413.69 417.36 2409.69 426.24C2405.69 435.12 2403.7 444.888 2403.7 455.544V666H2321.11Z"/></svg>